<svg xmlns="http://www.w3.org/2000/svg" xmlns:svg="http://www.w3.org/2000/svg" id="svg8" width="256" height="256" version="1.1" viewBox="0 0 256 256"><metadata id="metadata5"/><g id="layer1" transform="translate(0,-835.24998)"><g id="g981" transform="translate(2.4458478,-6.0608962)"><path id="circle920" d="m 125.67188,16.138672 a 20.124598,4.4955006 0 0 0 -20.125,4.49414 20.124598,4.4955006 0 0 0 0.15039,0.501954 l -6.042973,11.730468 a 105.21051,105.21051 0 0 0 -78.890625,101.785156 105.21051,105.21051 0 0 0 1.552734,17.98047 l -8.945312,13.9082 a 24.649712,5.5063357 60 0 0 -0.632813,0.16016 24.649712,5.5063357 60 0 0 7.556641,24.09961 24.649712,5.5063357 60 0 0 17.09375,18.59375 24.649712,5.5063357 60 0 0 0.441406,-0.4668 l 13.046875,-0.625 a 105.21051,105.21051 0 0 0 75.097657,31.56055 105.21051,105.21051 0 0 0 49.83398,-12.65625 l 14.00782,4.24023 a 5.0099173,22.427439 44.094921 0 0 0.28515,0.51172 5.0099173,22.427439 44.094921 0 0 19.20508,-12.62109 5.0099173,22.427439 44.094921 0 0 12.00781,-19.59375 5.0099173,22.427439 44.094921 0 0 -0.52343,-0.28321 l -4.00977,-11.88086 a 105.21051,105.21051 0 0 0 14.4043,-52.92773 105.21051,105.21051 0 0 0 -79.55469,-101.898437 l -5.97852,-11.605469 a 20.124598,4.4955006 0 0 0 0.14454,-0.513672 20.124598,4.4955006 0 0 0 -20.125,-4.49414 z" transform="translate(0,835.24998)" style="opacity:1;fill:#964253;fill-opacity:1;stroke:#e36956;stroke-width:14.83826542;stroke-linecap:round;stroke-linejoin:round;stroke-miterlimit:4;stroke-dasharray:none;stroke-dashoffset:0;stroke-opacity:1;paint-order:fill markers stroke"/><circle id="path812" cx="125.975" cy="969.901" r="105.211" style="opacity:1;fill:#964253;fill-opacity:1;stroke:none;stroke-width:14.83826542;stroke-linecap:round;stroke-linejoin:round;stroke-miterlimit:4;stroke-dasharray:none;stroke-dashoffset:0;stroke-opacity:1;paint-order:fill markers stroke"/><g id="g835" transform="matrix(0.42326066,0,0,0.42326066,-246.49485,754.71853)" style="stroke-width:2.19106483"><path style="opacity:1;fill:#964253;fill-opacity:1;stroke:none;stroke-width:35.05703735;stroke-linecap:round;stroke-linejoin:round;stroke-miterlimit:4;stroke-dasharray:none;stroke-dashoffset:0;stroke-opacity:1;paint-order:fill markers stroke" id="rect828" d="M 834.22645,236.06362 H 924.345 l 17.0224,33.04347 H 817.20405 Z"/><ellipse style="opacity:1;fill:#57294b;fill-opacity:1;stroke:none;stroke-width:35.05703735;stroke-linecap:round;stroke-linejoin:round;stroke-miterlimit:4;stroke-dasharray:none;stroke-dashoffset:0;stroke-opacity:1;paint-order:fill markers stroke" id="path831" cx="879.286" cy="239.014" rx="47.547" ry="10.621"/></g><g style="stroke-width:1.78883624" id="g841" transform="matrix(-0.25921644,-0.44897607,0.44897607,-0.25921644,145.67696,1480.0305)"><path id="path837" d="M 834.22645,236.06362 H 924.345 l 17.0224,33.04347 H 817.20405 Z" style="opacity:1;fill:#964253;fill-opacity:1;stroke:none;stroke-width:28.62137985;stroke-linecap:round;stroke-linejoin:round;stroke-miterlimit:4;stroke-dasharray:none;stroke-dashoffset:0;stroke-opacity:1;paint-order:fill markers stroke"/><ellipse id="ellipse839" cx="879.286" cy="239.014" rx="47.547" ry="10.621" style="opacity:1;fill:#57294b;fill-opacity:1;stroke:none;stroke-width:28.62137794;stroke-linecap:round;stroke-linejoin:round;stroke-miterlimit:4;stroke-dasharray:none;stroke-dashoffset:0;stroke-opacity:1;paint-order:fill markers stroke"/></g><g id="g847" transform="matrix(0.32822789,-0.338765,-0.338765,-0.32822789,-1.9284596,1427.4214)" style="stroke-width:1.96608722"><path style="opacity:1;fill:#964253;fill-opacity:1;stroke:none;stroke-width:31.45739555;stroke-linecap:round;stroke-linejoin:round;stroke-miterlimit:4;stroke-dasharray:none;stroke-dashoffset:0;stroke-opacity:1;paint-order:fill markers stroke" id="path843" d="M 834.22645,236.06362 H 924.345 l 17.0224,33.04347 H 817.20405 Z"/><ellipse style="opacity:1;fill:#57294b;fill-opacity:1;stroke:none;stroke-width:31.45739365;stroke-linecap:round;stroke-linejoin:round;stroke-miterlimit:4;stroke-dasharray:none;stroke-dashoffset:0;stroke-opacity:1;paint-order:fill markers stroke" id="ellipse845" cx="879.286" cy="239.014" rx="47.547" ry="10.621"/></g><g id="g918" transform="matrix(0.92739158,0,0,0.92739158,17.804218,69.940061)"><circle id="circle822" cx="105.275" cy="988.659" r="32.352" style="opacity:1;fill:#57294b;fill-opacity:1;stroke:none;stroke-width:20.89258003;stroke-linecap:round;stroke-linejoin:round;stroke-miterlimit:4;stroke-dasharray:none;stroke-dashoffset:0;stroke-opacity:1;paint-order:fill markers stroke"/><circle style="opacity:1;fill:#57294b;fill-opacity:1;stroke:none;stroke-width:12.0859375;stroke-linecap:round;stroke-linejoin:round;stroke-miterlimit:4;stroke-dasharray:none;stroke-dashoffset:0;stroke-opacity:1;paint-order:fill markers stroke" id="circle905" cx="122.448" cy="910.877" r="18.715"/><circle id="circle907" cx="194.674" cy="969.466" r="10.634" style="opacity:1;fill:#57294b;fill-opacity:1;stroke:none;stroke-width:6.86718607;stroke-linecap:round;stroke-linejoin:round;stroke-miterlimit:4;stroke-dasharray:none;stroke-dashoffset:0;stroke-opacity:1;paint-order:fill markers stroke"/><circle style="opacity:1;fill:#57294b;fill-opacity:1;stroke:none;stroke-width:9.80273438;stroke-linecap:round;stroke-linejoin:round;stroke-miterlimit:4;stroke-dasharray:none;stroke-dashoffset:0;stroke-opacity:1;paint-order:fill markers stroke" id="circle909" cx="157.298" cy="1037.652" r="15.18"/><circle id="circle911" cx="41.635" cy="934.616" r="13.664" style="opacity:1;fill:#57294b;fill-opacity:1;stroke:none;stroke-width:8.8242178;stroke-linecap:round;stroke-linejoin:round;stroke-miterlimit:4;stroke-dasharray:none;stroke-dashoffset:0;stroke-opacity:1;paint-order:fill markers stroke"/></g></g></g></svg>