<svg xmlns="http://www.w3.org/2000/svg" xmlns:svg="http://www.w3.org/2000/svg" id="svg8" width="1093.513" height="407.45" version="1.1" viewBox="0 0 289.325 107.804"><metadata id="metadata5"/><g id="layer1" transform="translate(-135.9911,-102.42476)"><g id="g6914" transform="matrix(0.61100974,0.00242179,-0.00328686,-0.59224348,867.01273,313.13714)" style="opacity:1;mix-blend-mode:normal;stroke-width:2.84514"><path id="path6854" d="m -815.44586,322.52709 80.6318,-6.35 m 0,0 -25.06927,-86.78333 m -55.56248,93.13333 19.45738,-55.48823 m 36.10512,-37.6451 -36.10512,37.6451 m 0,0 61.17437,49.13826 m -80.6318,6.34997 -38.95987,-94.72083 m 58.4173,39.2326 -58.4173,-39.2326 m 94.5224,1.5875 -94.5224,-1.5875 m 0,3e-5 -68.99013,50.2708 m 5e-5,0 10.51717,49.2125 m 116.89021,-60.25073 -116.89021,60.25073 m -10.51717,-49.2125 107.95,44.45 m -97.43283,4.7625 58.47291,-99.48333 m -137.25263,109.00833 68.2625,-58.7375 m 10.51722,49.21253 -112.18326,-65.88125 m 101.66609,16.66872 -36.51249,-63.5 m 105.50257,13.2292 -105.50257,-13.2292 m -65.1536,46.83128 101.66609,16.66872 m -36.51249,-63.5 -31.75,122.2375 m -63.635,-153.59145 -81.952,80.83106 m -34.4172,-22.45939 116.3692,-58.37167 m 30.2314,78.18523 -30.2314,-78.18523 m 0,0 -28.4401,96.97062 m 43.4072,28.75296 -33.1545,26.01581 m 0,-2e-5 81.82234,1.85208 m -48.66784,-27.86787 48.6679,27.86787 m 0,0 -33.4036,-75.40625 m -58.6714,18.78542 58.6714,-18.78542 m 65.1536,-46.83125 -65.1536,46.83128 m -15.2643,47.53835 15.2643,-47.53838 m -48.4188,73.55419 48.4188,-73.55419 m -48.4188,73.55419 -10.2526,-54.76877 m 43.4071,28.75296 -43.4071,-28.75296 m 0,0 -99.5495,35.71877 m 46.0375,-51.85833 63.7646,70.90833 m -68.9901,-0.79377 58.7374,-53.975 m -99.5494,35.71875 46.0375,-51.85831 m -5.2255,70.11456 -29.1917,-92.57395 m 34.4172,22.45936 -34.4172,-22.45936 m -11.6203,74.3177 11.6203,-74.3177" style="opacity:.596;fill:none;stroke:#fff;stroke-width:.376392;stroke-linecap:butt;stroke-linejoin:miter;stroke-miterlimit:4;stroke-dasharray:none;stroke-opacity:1"/><path id="path6856" d="m -1138.4993,334.16877 a 3.9715293,3.9715284 0 0 1 -3.9716,3.97153 3.9715293,3.9715284 0 0 1 -3.9715,-3.97153 3.9715293,3.9715284 0 0 1 3.9715,-3.97153 3.9715293,3.9715284 0 0 1 3.9716,3.97153 z" style="opacity:1;vector-effect:none;fill:none;fill-opacity:1;fill-rule:nonzero;stroke:#fff;stroke-width:1.12918;stroke-linecap:round;stroke-linejoin:round;stroke-miterlimit:4;stroke-dasharray:none;stroke-dashoffset:0;stroke-opacity:1"/><path style="opacity:1;vector-effect:none;fill:#fff;fill-opacity:1;fill-rule:nonzero;stroke:none;stroke-width:2.25835;stroke-linecap:round;stroke-linejoin:round;stroke-miterlimit:4;stroke-dasharray:none;stroke-dashoffset:0;stroke-opacity:1" id="path6858" d="m -1139.6923,334.16877 a 2.7786212,2.7786212 0 0 1 -2.7786,2.77862 2.7786212,2.7786212 0 0 1 -2.7786,-2.77862 2.7786212,2.7786212 0 0 1 2.7786,-2.77862 2.7786212,2.7786212 0 0 1 2.7786,2.77862 z"/><path id="path6860" d="m -1079.7618,280.19377 a 3.9715293,3.9715284 0 0 1 -3.9716,3.97153 3.9715293,3.9715284 0 0 1 -3.9715,-3.97153 3.9715293,3.9715284 0 0 1 3.9715,-3.97153 3.9715293,3.9715284 0 0 1 3.9716,3.97153 z" style="opacity:.5;vector-effect:none;fill:none;fill-opacity:1;fill-rule:nonzero;stroke:#fff;stroke-width:1.12918;stroke-linecap:round;stroke-linejoin:round;stroke-miterlimit:4;stroke-dasharray:none;stroke-dashoffset:0;stroke-opacity:1"/><path style="opacity:.5;vector-effect:none;fill:#fff;fill-opacity:1;fill-rule:nonzero;stroke:none;stroke-width:2.25835;stroke-linecap:round;stroke-linejoin:round;stroke-miterlimit:4;stroke-dasharray:none;stroke-dashoffset:0;stroke-opacity:1" id="path6862" d="m -1080.9548,280.19377 a 2.7786212,2.7786212 0 0 1 -2.7786,2.77862 2.7786212,2.7786212 0 0 1 -2.7786,-2.77862 2.7786212,2.7786212 0 0 1 2.7786,-2.77862 2.7786212,2.7786212 0 0 1 2.7786,2.77862 z"/><path id="path6864" d="m -987.68677,336.8146 a 3.9715293,3.9715284 0 0 1 -3.9716,3.97153 3.9715293,3.9715284 0 0 1 -3.9715,-3.97153 3.9715293,3.9715284 0 0 1 3.9715,-3.97153 3.9715293,3.9715284 0 0 1 3.9716,3.97153 z" style="opacity:.5;vector-effect:none;fill:none;fill-opacity:1;fill-rule:nonzero;stroke:#fff;stroke-width:1.12918;stroke-linecap:round;stroke-linejoin:round;stroke-miterlimit:4;stroke-dasharray:none;stroke-dashoffset:0;stroke-opacity:1"/><path style="opacity:.5;vector-effect:none;fill:#fff;fill-opacity:1;fill-rule:nonzero;stroke:none;stroke-width:2.25835;stroke-linecap:round;stroke-linejoin:round;stroke-miterlimit:4;stroke-dasharray:none;stroke-dashoffset:0;stroke-opacity:1" id="path6866" d="m -988.87977,336.8146 a 2.7786212,2.7786212 0 0 1 -2.7786,2.77862 2.7786212,2.7786212 0 0 1 -2.7786,-2.77862 2.7786212,2.7786212 0 0 1 2.7786,-2.77862 2.7786212,2.7786212 0 0 1 2.7786,2.77862 z"/><path id="path6868" d="m -955.93677,214.5771 a 3.9715293,3.9715284 0 0 1 -3.9716,3.97153 3.9715293,3.9715284 0 0 1 -3.9715,-3.97153 3.9715293,3.9715284 0 0 1 3.9715,-3.97153 3.9715293,3.9715284 0 0 1 3.9716,3.97153 z" style="opacity:1;vector-effect:none;fill:none;fill-opacity:1;fill-rule:nonzero;stroke:#fff;stroke-width:1.12918;stroke-linecap:round;stroke-linejoin:round;stroke-miterlimit:4;stroke-dasharray:none;stroke-dashoffset:0;stroke-opacity:1"/><path style="opacity:1;vector-effect:none;fill:#fff;fill-opacity:1;fill-rule:nonzero;stroke:none;stroke-width:2.25835;stroke-linecap:round;stroke-linejoin:round;stroke-miterlimit:4;stroke-dasharray:none;stroke-dashoffset:0;stroke-opacity:1" id="path6870" d="m -957.12977,214.5771 a 2.7786212,2.7786212 0 0 1 -2.7786,2.77862 2.7786212,2.7786212 0 0 1 -2.7786,-2.77862 2.7786212,2.7786212 0 0 1 2.7786,-2.77862 2.7786212,2.7786212 0 0 1 2.7786,2.77862 z"/><path id="path6872" d="m -811.47427,322.5271 a 3.9715293,3.9715284 0 0 1 -3.9716,3.97153 3.9715293,3.9715284 0 0 1 -3.9715,-3.97153 3.9715293,3.9715284 0 0 1 3.9715,-3.97153 3.9715293,3.9715284 0 0 1 3.9716,3.97153 z" style="opacity:.596;vector-effect:none;fill:none;fill-opacity:1;fill-rule:nonzero;stroke:#fff;stroke-width:1.12918;stroke-linecap:round;stroke-linejoin:round;stroke-miterlimit:4;stroke-dasharray:none;stroke-dashoffset:0;stroke-opacity:1"/><path style="opacity:.5;vector-effect:none;fill:#fff;fill-opacity:1;fill-rule:nonzero;stroke:none;stroke-width:2.25835;stroke-linecap:round;stroke-linejoin:round;stroke-miterlimit:4;stroke-dasharray:none;stroke-dashoffset:0;stroke-opacity:1" id="path6874" d="m -812.66727,322.5271 a 2.7786212,2.7786212 0 0 1 -2.7786,2.77862 2.7786212,2.7786212 0 0 1 -2.7786,-2.77862 2.7786212,2.7786212 0 0 1 2.7786,-2.77862 2.7786212,2.7786212 0 0 1 2.7786,2.77862 z"/><path style="opacity:1;vector-effect:none;fill:none;fill-opacity:1;fill-rule:nonzero;stroke:#fff;stroke-width:1.12918;stroke-linecap:round;stroke-linejoin:round;stroke-miterlimit:4;stroke-dasharray:none;stroke-dashoffset:0;stroke-opacity:1" id="path6876" d="m -919.42427,278.0771 a 3.9715293,3.9715284 0 0 1 -3.9716,3.97153 3.9715293,3.9715284 0 0 1 -3.9715,-3.97153 3.9715293,3.9715284 0 0 1 3.9715,-3.97153 3.9715293,3.9715284 0 0 1 3.9716,3.97153 z"/><path id="path6878" d="m -920.61727,278.0771 a 2.7786212,2.7786212 0 0 1 -2.7786,2.77862 2.7786212,2.7786212 0 0 1 -2.7786,-2.77862 2.7786212,2.7786212 0 0 1 2.7786,-2.77862 2.7786212,2.7786212 0 0 1 2.7786,2.77862 z" style="opacity:1;vector-effect:none;fill:#fff;fill-opacity:1;fill-rule:nonzero;stroke:none;stroke-width:2.25835;stroke-linecap:round;stroke-linejoin:round;stroke-miterlimit:4;stroke-dasharray:none;stroke-dashoffset:0;stroke-opacity:1"/><path id="path6880" d="m -1070.9644,334.96253 a 2.5163233,2.5163236 0 0 1 -2.5164,2.51633 2.5163233,2.5163236 0 0 1 -2.5163,-2.51633 2.5163233,2.5163236 0 0 1 2.5163,-2.51632 2.5163233,2.5163236 0 0 1 2.5164,2.51632 z" style="opacity:.5;vector-effect:none;fill:none;fill-opacity:1;fill-rule:nonzero;stroke:#fff;stroke-width:2.25835;stroke-linecap:round;stroke-linejoin:round;stroke-miterlimit:4;stroke-dasharray:none;stroke-dashoffset:0;stroke-opacity:1"/><path style="opacity:.5;vector-effect:none;fill:#fff;fill-opacity:1;fill-rule:nonzero;stroke:none;stroke-width:2.25835;stroke-linecap:round;stroke-linejoin:round;stroke-miterlimit:4;stroke-dasharray:none;stroke-dashoffset:0;stroke-opacity:1" id="path6882" d="m -1072.2293,334.96252 a 1.251457,1.2514566 0 0 1 -1.2515,1.25145 1.251457,1.2514566 0 0 1 -1.2514,-1.25145 1.251457,1.2514566 0 0 1 1.2514,-1.25146 1.251457,1.2514566 0 0 1 1.2515,1.25146 z"/><path id="path6884" d="m -1134.729,264.0542 a 2.5163233,2.5163236 0 0 1 -2.5164,2.51633 2.5163233,2.5163236 0 0 1 -2.5163,-2.51633 2.5163233,2.5163236 0 0 1 2.5163,-2.51632 2.5163233,2.5163236 0 0 1 2.5164,2.51632 z" style="opacity:.5;vector-effect:none;fill:none;fill-opacity:1;fill-rule:nonzero;stroke:#fff;stroke-width:2.25835;stroke-linecap:round;stroke-linejoin:round;stroke-miterlimit:4;stroke-dasharray:none;stroke-dashoffset:0;stroke-opacity:1"/><path style="opacity:.5;vector-effect:none;fill:#fff;fill-opacity:1;fill-rule:nonzero;stroke:none;stroke-width:2.25835;stroke-linecap:round;stroke-linejoin:round;stroke-miterlimit:4;stroke-dasharray:none;stroke-dashoffset:0;stroke-opacity:1" id="path6886" d="m -1135.9939,264.05419 a 1.251457,1.2514566 0 0 1 -1.2515,1.25145 1.251457,1.2514566 0 0 1 -1.2514,-1.25145 1.251457,1.2514566 0 0 1 1.2514,-1.25146 1.251457,1.2514566 0 0 1 1.2515,1.25146 z"/><path id="path6888" d="m -1180.7665,315.91253 a 2.5163233,2.5163236 0 0 1 -2.5164,2.51633 2.5163233,2.5163236 0 0 1 -2.5163,-2.51633 2.5163233,2.5163236 0 0 1 2.5163,-2.51632 2.5163233,2.5163236 0 0 1 2.5164,2.51632 z" style="opacity:1;vector-effect:none;fill:none;fill-opacity:1;fill-rule:nonzero;stroke:#fff;stroke-width:2.25835;stroke-linecap:round;stroke-linejoin:round;stroke-miterlimit:4;stroke-dasharray:none;stroke-dashoffset:0;stroke-opacity:1"/><path style="opacity:1;vector-effect:none;fill:#fff;fill-opacity:1;fill-rule:nonzero;stroke:none;stroke-width:2.25835;stroke-linecap:round;stroke-linejoin:round;stroke-miterlimit:4;stroke-dasharray:none;stroke-dashoffset:0;stroke-opacity:1" id="path6890" d="m -1182.0314,315.91252 a 1.251457,1.2514566 0 0 1 -1.2515,1.25145 1.251457,1.2514566 0 0 1 -1.2514,-1.25145 1.251457,1.2514566 0 0 1 1.2514,-1.25146 1.251457,1.2514566 0 0 1 1.2515,1.25146 z"/><path id="path6892" d="m -1022.5456,261.40836 a 2.5163233,2.5163236 0 0 1 -2.5164,2.51633 2.5163233,2.5163236 0 0 1 -2.5163,-2.51633 2.5163233,2.5163236 0 0 1 2.5163,-2.51632 2.5163233,2.5163236 0 0 1 2.5164,2.51632 z" style="opacity:1;vector-effect:none;fill:none;fill-opacity:1;fill-rule:nonzero;stroke:#fff;stroke-width:2.25835;stroke-linecap:round;stroke-linejoin:round;stroke-miterlimit:4;stroke-dasharray:none;stroke-dashoffset:0;stroke-opacity:1"/><path style="opacity:1;vector-effect:none;fill:#fff;fill-opacity:1;fill-rule:nonzero;stroke:none;stroke-width:2.25835;stroke-linecap:round;stroke-linejoin:round;stroke-miterlimit:4;stroke-dasharray:none;stroke-dashoffset:0;stroke-opacity:1" id="path6894" d="m -1023.8105,261.40835 a 1.251457,1.2514566 0 0 1 -1.2515,1.25145 1.251457,1.2514566 0 0 1 -1.2514,-1.25145 1.251457,1.2514566 0 0 1 1.2514,-1.25146 1.251457,1.2514566 0 0 1 1.2515,1.25146 z"/><path id="path6896" d="m -910.36232,327.28961 a 2.5163233,2.5163236 0 0 1 -2.5164,2.51633 2.5163233,2.5163236 0 0 1 -2.5163,-2.51633 2.5163233,2.5163236 0 0 1 2.5163,-2.51632 2.5163233,2.5163236 0 0 1 2.5164,2.51632 z" style="opacity:.5;vector-effect:none;fill:none;fill-opacity:1;fill-rule:nonzero;stroke:#fff;stroke-width:2.25835;stroke-linecap:round;stroke-linejoin:round;stroke-miterlimit:4;stroke-dasharray:none;stroke-dashoffset:0;stroke-opacity:1"/><path style="opacity:.5;vector-effect:none;fill:#fff;fill-opacity:1;fill-rule:nonzero;stroke:none;stroke-width:2.25835;stroke-linecap:round;stroke-linejoin:round;stroke-miterlimit:4;stroke-dasharray:none;stroke-dashoffset:0;stroke-opacity:1" id="path6898" d="m -911.62722,327.2896 a 1.251457,1.2514566 0 0 1 -1.2515,1.25145 1.251457,1.2514566 0 0 1 -1.2514,-1.25145 1.251457,1.2514566 0 0 1 1.2514,-1.25146 1.251457,1.2514566 0 0 1 1.2515,1.25146 z"/><path id="path6900" d="m -851.8894,227.80628 a 2.5163233,2.5163236 0 0 1 -2.5164,2.51633 2.5163233,2.5163236 0 0 1 -2.5163,-2.51633 2.5163233,2.5163236 0 0 1 2.5163,-2.51632 2.5163233,2.5163236 0 0 1 2.5164,2.51632 z" style="opacity:.5;vector-effect:none;fill:none;fill-opacity:1;fill-rule:nonzero;stroke:#fff;stroke-width:2.25835;stroke-linecap:round;stroke-linejoin:round;stroke-miterlimit:4;stroke-dasharray:none;stroke-dashoffset:0;stroke-opacity:1"/><path style="opacity:.5;vector-effect:none;fill:#fff;fill-opacity:1;fill-rule:nonzero;stroke:none;stroke-width:2.25835;stroke-linecap:round;stroke-linejoin:round;stroke-miterlimit:4;stroke-dasharray:none;stroke-dashoffset:0;stroke-opacity:1" id="path6902" d="m -853.1543,227.80627 a 1.251457,1.2514566 0 0 1 -1.2515,1.25145 1.251457,1.2514566 0 0 1 -1.2514,-1.25145 1.251457,1.2514566 0 0 1 1.2514,-1.25146 1.251457,1.2514566 0 0 1 1.2515,1.25146 z"/><path style="opacity:.517;vector-effect:none;fill:none;fill-opacity:1;fill-rule:nonzero;stroke:#fff;stroke-width:2.25835;stroke-linecap:round;stroke-linejoin:round;stroke-miterlimit:4;stroke-dasharray:none;stroke-dashoffset:0;stroke-opacity:1" id="path6904" d="m -732.29773,316.17711 a 2.5163233,2.5163236 0 0 1 -2.5164,2.51633 2.5163233,2.5163236 0 0 1 -2.5163,-2.51633 2.5163233,2.5163236 0 0 1 2.5163,-2.51632 2.5163233,2.5163236 0 0 1 2.5164,2.51632 z"/><path id="path6906" d="m -733.56263,316.1771 a 1.251457,1.2514566 0 0 1 -1.2515,1.25145 1.251457,1.2514566 0 0 1 -1.2514,-1.25145 1.251457,1.2514566 0 0 1 1.2514,-1.25146 1.251457,1.2514566 0 0 1 1.2515,1.25146 z" style="opacity:.517;vector-effect:none;fill:#fff;fill-opacity:1;fill-rule:nonzero;stroke:none;stroke-width:2.25835;stroke-linecap:round;stroke-linejoin:round;stroke-miterlimit:4;stroke-dasharray:none;stroke-dashoffset:0;stroke-opacity:1"/><path id="path6908" d="m -1034.7413,308.94672 a 5.5849721,5.5849721 0 0 1 -5.5849,5.58497 5.5849721,5.5849721 0 0 1 -5.5849,-5.58497 5.5849721,5.5849721 0 0 1 5.5849,-5.58497 5.5849721,5.5849721 0 0 1 5.5849,5.58497 z" style="opacity:.384;vector-effect:none;fill:#fff;fill-opacity:1;fill-rule:nonzero;stroke:none;stroke-width:2.25835;stroke-linecap:round;stroke-linejoin:round;stroke-miterlimit:4;stroke-dasharray:none;stroke-dashoffset:0;stroke-opacity:1"/><path id="path6910" d="m -1049.7084,183.22314 a 5.5849721,5.5849721 0 0 1 -5.5849,5.58497 5.5849721,5.5849721 0 0 1 -5.5849,-5.58497 5.5849721,5.5849721 0 0 1 5.5849,-5.58497 5.5849721,5.5849721 0 0 1 5.5849,5.58497 z" style="opacity:.384;vector-effect:none;fill:#fff;fill-opacity:1;fill-rule:nonzero;stroke:none;stroke-width:2.25835;stroke-linecap:round;stroke-linejoin:round;stroke-miterlimit:4;stroke-dasharray:none;stroke-dashoffset:0;stroke-opacity:1"/><path style="opacity:1;vector-effect:none;fill:#fff;fill-opacity:1;fill-rule:nonzero;stroke:none;stroke-width:2.25835;stroke-linecap:round;stroke-linejoin:round;stroke-miterlimit:4;stroke-dasharray:none;stroke-dashoffset:0;stroke-opacity:1" id="path6912" d="m -1166.0776,241.5948 a 5.5849721,5.5849721 0 0 1 -5.5849,5.58497 5.5849721,5.5849721 0 0 1 -5.5849,-5.58497 5.5849721,5.5849721 0 0 1 5.5849,-5.58497 5.5849721,5.5849721 0 0 1 5.5849,5.58497 z"/></g></g></svg>